<?xml version="1.0" encoding="UTF-8" standalone="no"?>
<svg
   xmlns:dc="http://purl.org/dc/elements/1.1/"
   xmlns:cc="http://creativecommons.org/ns#"
   xmlns:rdf="http://www.w3.org/1999/02/22-rdf-syntax-ns#"
   xmlns:svg="http://www.w3.org/2000/svg"
   xmlns="http://www.w3.org/2000/svg"
   viewBox="0 0 334.45334 80.026665"
   height="80.026665"
   width="334.45334"
   xml:space="preserve"
   id="svg2"
   version="1.1"><metadata
     id="metadata8"><rdf:RDF><cc:Work
         rdf:about=""><dc:format>image/svg+xml</dc:format><dc:type
           rdf:resource="http://purl.org/dc/dcmitype/StillImage" /></cc:Work></rdf:RDF></metadata><defs
     id="defs6" /><g
     transform="matrix(1.3333333,0,0,-1.3333333,0,80.026667)"
     id="g10"><g
       transform="scale(0.1)"
       id="g12"><g
         transform="scale(10)"
         id="g14"><text
           id="text18"
           style="font-variant:normal;font-weight:normal;font-size:13.02200031px;font-family:MyriadPro;-inkscape-font-specification:MyriadPro-Regular;writing-mode:lr-tb;fill:#fff;fill-opacity:1;fill-rule:nonzero;stroke:none"
           transform="matrix(1,0,0,-1,48.6301,3.9)"><tspan
             id="tspan16"
             y="0"
             x="0 7.4614329 13.738037 24.598385 32.007904 39.183025 44.339737 47.100403 54.796196 61.007629 67.284233 74.511444 80.345299 86.621902 93.965652 101.11473 103.8754 112.44387 118.66849 122.97806 129.25467 132.32785 135.08852 139.08627 141.84604 148.89095 156.04002 163.26724 169.54384 172.3045 178.26837 184.79181 189.94905 194.18051">Campus Avançado Natal - Zona Leste</tspan></text>
</g><path
         id="path20"
         style="fill:#fff;fill-opacity:1;fill-rule:nonzero;stroke:none"
         d="m 416.324,192.988 c 0,-6.593 -5.488,-12.082 -12.082,-12.082 h -95.535 c -6.594,0 -12.078,5.489 -12.078,12.082 v 95.535 c 0,6.594 5.484,12.082 12.078,12.082 h 95.535 c 6.594,0 12.082,-5.488 12.082,-12.082 v -95.535" /><path
         id="path22"
         style="fill:#fff;fill-opacity:1;fill-rule:nonzero;stroke:none"
         d="m 273.57,478.508 c 0,-6.594 -5.488,-12.082 -12.082,-12.082 h -95.535 c -6.59,0 -12.082,5.488 -12.082,12.082 v 96.637 c 0,6.582 5.492,12.082 12.082,12.082 h 95.535 c 6.594,0 12.082,-5.5 12.082,-12.082 v -96.637" /><path
         id="path24"
         style="fill:#fff;fill-opacity:1;fill-rule:nonzero;stroke:none"
         d="m 416.324,478.508 c 0,-6.594 -5.488,-12.082 -12.082,-12.082 h -95.535 c -6.594,0 -12.078,5.488 -12.078,12.082 v 96.637 c 0,6.582 5.484,12.082 12.078,12.082 h 95.535 c 6.594,0 12.082,-5.5 12.082,-12.082 v -96.637" /><path
         id="path26"
         style="fill:#fff;fill-opacity:1;fill-rule:nonzero;stroke:none"
         d="m 129.715,335.754 c 0,-6.594 -5.488,-12.082 -12.082,-12.082 H 22.0977 c -6.5938,0 -12.0821,5.488 -12.0821,12.082 v 96.629 c 0,6.59 5.4883,12.082 12.0821,12.082 h 95.5353 c 6.594,0 12.082,-5.492 12.082,-12.082 v -96.629" /><path
         id="path28"
         style="fill:#fff;fill-opacity:1;fill-rule:nonzero;stroke:none"
         d="m 273.57,335.754 c 0,-6.594 -5.488,-12.082 -12.082,-12.082 h -95.535 c -6.59,0 -12.082,5.488 -12.082,12.082 v 96.629 c 0,6.59 5.492,12.082 12.082,12.082 h 95.535 c 6.594,0 12.082,-5.492 12.082,-12.082 v -96.629" /><path
         id="path30"
         style="fill:#fff;fill-opacity:1;fill-rule:nonzero;stroke:none"
         d="m 129.715,192.988 c 0,-6.593 -5.488,-12.082 -12.082,-12.082 H 22.0977 c -6.5938,0 -12.0821,5.489 -12.0821,12.082 v 95.535 c 0,6.594 5.4883,12.082 12.0821,12.082 h 95.5353 c 6.594,0 12.082,-5.488 12.082,-12.082 v -95.535" /><path
         id="path32"
         style="fill:#fff;fill-opacity:1;fill-rule:nonzero;stroke:none"
         d="m 273.57,192.988 c 0,-6.593 -5.488,-12.082 -12.082,-12.082 h -95.535 c -6.59,0 -12.082,5.489 -12.082,12.082 v 95.535 c 0,6.594 5.492,12.082 12.082,12.082 h 95.535 c 6.594,0 12.082,-5.488 12.082,-12.082 v -95.535" /><path
         id="path34"
         style="fill:#fff;fill-opacity:1;fill-rule:nonzero;stroke:none"
         d="m 129.715,50.2227 c 0,-6.5821 -5.488,-12.0704 -12.082,-12.0704 H 22.0977 c -6.5938,0 -12.0821,5.4883 -12.0821,12.0704 V 145.77 c 0,6.582 5.4883,12.082 12.0821,12.082 h 95.5353 c 6.594,0 12.082,-5.5 12.082,-12.082 V 50.2227" /><path
         id="path36"
         style="fill:#fff;fill-opacity:1;fill-rule:nonzero;stroke:none"
         d="m 273.57,50.2227 c 0,-6.5821 -5.488,-12.0704 -12.082,-12.0704 h -95.535 c -6.59,0 -12.082,5.4883 -12.082,12.0704 V 145.77 c 0,6.582 5.492,12.082 12.082,12.082 h 95.535 c 6.594,0 12.082,-5.5 12.082,-12.082 V 50.2227" /><path
         id="path38"
         style="fill:#fff;fill-opacity:1;fill-rule:nonzero;stroke:none"
         d="m 136.305,526.824 c 0,-36.238 -29.657,-65.886 -65.887,-65.886 -36.2422,0 -65.89847,29.648 -65.89847,65.886 0,36.242 29.65627,65.891 65.89847,65.891 36.23,0 65.887,-29.649 65.887,-65.891" /><path
         id="path40"
         style="fill:#fff;fill-opacity:1;fill-rule:nonzero;stroke:none"
         d="m 511.129,227.93 h 14.766 c 7.609,0 13.183,1.504 16.738,4.519 3.547,3.02 5.32,7.539 5.32,13.574 0,6.118 -1.805,10.532 -5.418,13.227 -3.613,2.703 -9.414,4.051 -17.402,4.051 h -14.004 z m 0,-9.239 v -38.468 h -10.77 v 92.5 h 25.411 c 11.367,0 19.761,-2.164 25.195,-6.512 5.43,-4.348 8.144,-10.879 8.144,-19.617 0,-12.231 -6.211,-20.5 -18.632,-24.797 l 25.156,-41.574 h -12.735 l -22.445,38.468 h -19.324" /><path
         id="path42"
         style="fill:#fff;fill-opacity:1;fill-rule:nonzero;stroke:none"
         d="m 589.535,180.223 h -10.523 v 69.347 h 10.523 z m -11.414,88.136 c 0,2.411 0.598,4.168 1.777,5.282 1.18,1.125 2.668,1.679 4.434,1.679 1.691,0 3.156,-0.562 4.375,-1.707 1.231,-1.14 1.848,-2.89 1.848,-5.254 0,-2.363 -0.617,-4.121 -1.848,-5.285 -1.219,-1.16 -2.684,-1.734 -4.375,-1.734 -1.766,0 -3.254,0.574 -4.434,1.734 -1.179,1.164 -1.777,2.922 -1.777,5.285" /><path
         id="path44"
         style="fill:#fff;fill-opacity:1;fill-rule:nonzero;stroke:none"
         d="m 618.883,214.961 c 0,-8.859 1.769,-15.606 5.32,-20.254 3.547,-4.641 8.774,-6.953 15.656,-6.953 6.883,0 12.121,2.305 15.684,6.926 3.574,4.617 5.363,11.375 5.363,20.281 0,8.816 -1.789,15.508 -5.363,20.09 -3.563,4.578 -8.84,6.863 -15.809,6.863 -6.886,0 -12.089,-2.258 -15.597,-6.769 -3.504,-4.52 -5.254,-11.239 -5.254,-20.184 z m 52.922,0 c 0,-11.309 -2.856,-20.137 -8.559,-26.484 -5.699,-6.348 -13.582,-9.524 -23.641,-9.524 -6.21,0 -11.726,1.457 -16.542,4.367 -4.817,2.91 -8.536,7.09 -11.153,12.528 -2.629,5.441 -3.933,11.82 -3.933,19.113 0,11.301 2.832,20.105 8.496,26.418 5.664,6.305 13.523,9.461 23.574,9.461 9.726,0 17.441,-3.235 23.172,-9.688 5.722,-6.457 8.586,-15.183 8.586,-26.191" /><path
         id="path46"
         style="fill:#fff;fill-opacity:1;fill-rule:nonzero;stroke:none"
         d="m 766.305,228.691 h 31.496 v -44.992 c -4.903,-1.558 -9.883,-2.742 -14.953,-3.543 -5.067,-0.801 -10.946,-1.203 -17.625,-1.203 -14.024,0 -24.953,4.172 -32.766,12.5 -7.82,8.332 -11.727,20 -11.727,35.02 0,9.621 1.93,18.047 5.801,25.285 3.867,7.226 9.434,12.754 16.699,16.57 7.262,3.82 15.782,5.727 25.547,5.727 9.879,0 19.102,-1.809 27.633,-5.442 l -4.187,-9.492 c -8.36,3.547 -16.414,5.32 -24.149,5.32 -11.281,0 -20.09,-3.355 -26.426,-10.066 -6.339,-6.699 -9.503,-16.008 -9.503,-27.902 0,-12.489 3.046,-21.953 9.152,-28.407 6.109,-6.457 15.074,-9.675 26.902,-9.675 6.426,0 12.707,0.73 18.828,2.207 v 28.472 h -20.722 v 9.621" /><path
         id="path48"
         style="fill:#fff;fill-opacity:1;fill-rule:nonzero;stroke:none"
         d="m 850.152,250.84 c 3.086,0 5.86,-0.254 8.313,-0.762 l -1.469,-9.746 c -2.867,0.637 -5.406,0.945 -7.594,0.945 -5.625,0 -10.429,-2.273 -14.425,-6.836 -3.993,-4.55 -5.989,-10.222 -5.989,-17.007 v -37.211 h -10.523 v 69.347 h 8.68 l 1.21,-12.843 h 0.508 c 2.578,4.511 5.684,7.992 9.317,10.441 3.633,2.441 7.629,3.672 11.972,3.672" /><path
         id="path50"
         style="fill:#fff;fill-opacity:1;fill-rule:nonzero;stroke:none"
         d="m 890.406,187.629 c 6.543,0 11.692,1.785 15.43,5.379 3.738,3.586 5.613,8.601 5.613,15.058 v 6.258 l -10.523,-0.437 c -8.36,-0.301 -14.395,-1.59 -18.098,-3.899 -3.691,-2.293 -5.547,-5.867 -5.547,-10.722 0,-3.797 1.153,-6.688 3.457,-8.668 2.305,-1.985 5.528,-2.969 9.668,-2.969 z m 23.77,-7.406 -2.09,9.875 h -0.508 c -3.465,-4.344 -6.922,-7.293 -10.371,-8.828 -3.437,-1.543 -7.734,-2.317 -12.891,-2.317 -6.894,0 -12.285,1.777 -16.203,5.313 -3.902,3.547 -5.855,8.586 -5.855,15.129 0,14.003 11.219,21.347 33.648,22.023 l 11.797,0.379 v 4.297 c 0,5.437 -1.172,9.465 -3.523,12.051 -2.344,2.597 -6.094,3.898 -11.25,3.898 -5.782,0 -12.332,-1.77 -19.649,-5.316 l -3.23,8.039 c 3.426,1.855 7.176,3.308 11.25,4.367 4.082,1.051 8.172,1.582 12.265,1.582 8.282,0 14.422,-1.836 18.418,-5.512 3.993,-3.672 5.985,-9.551 5.985,-17.652 v -47.328 h -7.793" /><path
         id="path52"
         style="fill:#fff;fill-opacity:1;fill-rule:nonzero;stroke:none"
         d="m 991.18,180.223 v 44.867 c 0,5.64 -1.289,9.859 -3.867,12.644 -2.579,2.782 -6.614,4.18 -12.114,4.18 -7.261,0 -12.586,-1.965 -15.965,-5.891 -3.379,-3.914 -5.066,-10.386 -5.066,-19.421 v -36.379 h -10.527 v 69.347 h 8.554 l 1.715,-9.492 h 0.512 c 2.148,3.418 5.176,6.063 9.062,7.938 3.883,1.875 8.211,2.824 12.989,2.824 8.367,0 14.668,-2.024 18.886,-6.043 4.227,-4.035 6.341,-10.481 6.341,-19.336 v -45.238 h -10.52" /><path
         id="path54"
         style="fill:#fff;fill-opacity:1;fill-rule:nonzero;stroke:none"
         d="m 1049.55,187.754 c 7.18,0 12.39,1.953 15.62,5.848 3.23,3.91 4.86,10.199 4.86,18.886 v 2.219 c 0,9.824 -1.64,16.836 -4.92,21.035 -3.28,4.199 -8.5,6.301 -15.69,6.301 -6.17,0 -10.89,-2.395 -14.16,-7.18 -3.28,-4.797 -4.91,-11.554 -4.91,-20.285 0,-8.855 1.62,-15.547 4.87,-20.058 3.26,-4.508 8.03,-6.766 14.33,-6.766 z m 21.04,1.766 h -0.56 c -4.87,-7.04 -12.13,-10.567 -21.81,-10.567 -9.08,0 -16.15,3.106 -21.2,9.309 -5.05,6.203 -7.58,15.008 -7.58,26.445 0,11.426 2.54,20.313 7.61,26.641 5.07,6.328 12.13,9.492 21.17,9.492 9.42,0 16.65,-3.418 21.68,-10.254 h 0.82 l -0.44,5 -0.25,4.875 v 28.211 h 10.51 v -98.449 h -8.55 l -1.4,9.297" /><path
         id="path56"
         style="fill:#fff;fill-opacity:1;fill-rule:nonzero;stroke:none"
         d="m 1129.34,242.043 c -5.57,0 -10.02,-1.82 -13.34,-5.441 -3.32,-3.633 -5.27,-8.653 -5.86,-15.059 h 36.32 c 0,6.621 -1.48,11.687 -4.44,15.215 -2.96,3.523 -7.18,5.285 -12.68,5.285 z m 2.85,-63.09 c -10.26,0 -18.37,3.125 -24.3,9.367 -5.94,6.239 -8.91,14.91 -8.91,26.004 0,11.184 2.76,20.063 8.27,26.645 5.52,6.582 12.92,9.871 22.22,9.871 8.7,0 15.59,-2.863 20.66,-8.574 5.07,-5.723 7.61,-13.262 7.61,-22.625 V 213 h -47.85 c 0.2,-8.148 2.26,-14.328 6.17,-18.535 3.92,-4.223 9.41,-6.328 16.51,-6.328 7.48,0 14.88,1.551 22.19,4.676 v -9.368 c -3.72,-1.597 -7.23,-2.754 -10.55,-3.445 -3.32,-0.691 -7.32,-1.047 -12.02,-1.047" /><path
         id="path58"
         style="fill:#fff;fill-opacity:1;fill-rule:nonzero;stroke:none"
         d="m 1235.64,187.754 c 7.19,0 12.39,1.953 15.63,5.848 3.23,3.91 4.85,10.199 4.85,18.886 v 2.219 c 0,9.824 -1.64,16.836 -4.91,21.035 -3.28,4.199 -8.51,6.301 -15.7,6.301 -6.17,0 -10.88,-2.395 -14.16,-7.18 -3.28,-4.797 -4.91,-11.554 -4.91,-20.285 0,-8.855 1.62,-15.547 4.87,-20.058 3.27,-4.508 8.03,-6.766 14.33,-6.766 z m 21.05,1.766 h -0.57 c -4.86,-7.04 -12.13,-10.567 -21.81,-10.567 -9.08,0 -16.15,3.106 -21.2,9.309 -5.05,6.203 -7.58,15.008 -7.58,26.445 0,11.426 2.54,20.313 7.61,26.641 5.07,6.328 12.13,9.492 21.17,9.492 9.43,0 16.65,-3.418 21.68,-10.254 h 0.82 l -0.44,5 -0.25,4.875 v 28.211 h 10.52 v -98.449 h -8.56 l -1.39,9.297" /><path
         id="path60"
         style="fill:#fff;fill-opacity:1;fill-rule:nonzero;stroke:none"
         d="m 1295.98,214.961 c 0,-8.859 1.77,-15.606 5.32,-20.254 3.55,-4.641 8.77,-6.953 15.66,-6.953 6.88,0 12.12,2.305 15.68,6.926 3.58,4.617 5.36,11.375 5.36,20.281 0,8.816 -1.78,15.508 -5.36,20.09 -3.56,4.578 -8.84,6.863 -15.81,6.863 -6.88,0 -12.09,-2.258 -15.59,-6.769 -3.51,-4.52 -5.26,-11.239 -5.26,-20.184 z m 52.92,0 c 0,-11.309 -2.85,-20.137 -8.55,-26.484 -5.71,-6.348 -13.59,-9.524 -23.64,-9.524 -6.22,0 -11.73,1.457 -16.55,4.367 -4.81,2.91 -8.53,7.09 -11.15,12.528 -2.63,5.441 -3.94,11.82 -3.94,19.113 0,11.301 2.84,20.105 8.5,26.418 5.66,6.305 13.53,9.461 23.57,9.461 9.73,0 17.45,-3.235 23.18,-9.688 5.72,-6.457 8.58,-15.183 8.58,-26.191" /><path
         id="path62"
         style="fill:#fff;fill-opacity:1;fill-rule:nonzero;stroke:none"
         d="m 1475.03,180.223 h -12.3 l -50.63,77.636 h -0.51 c 0.67,-9.109 1.01,-17.468 1.01,-25.054 v -52.582 h -9.95 v 92.5 h 12.17 l 50.51,-77.313 h 0.51 c -0.08,1.133 -0.28,4.793 -0.57,10.977 -0.29,6.179 -0.4,10.593 -0.32,13.254 v 53.082 h 10.08 v -92.5" /><path
         id="path64"
         style="fill:#fff;fill-opacity:1;fill-rule:nonzero;stroke:none"
         d="m 1505.96,214.961 c 0,-8.859 1.77,-15.606 5.33,-20.254 3.54,-4.641 8.76,-6.953 15.65,-6.953 6.88,0 12.12,2.305 15.68,6.926 3.58,4.617 5.36,11.375 5.36,20.281 0,8.816 -1.78,15.508 -5.36,20.09 -3.56,4.578 -8.83,6.863 -15.81,6.863 -6.88,0 -12.09,-2.258 -15.59,-6.769 -3.51,-4.52 -5.26,-11.239 -5.26,-20.184 z m 52.92,0 c 0,-11.309 -2.85,-20.137 -8.55,-26.484 -5.7,-6.348 -13.59,-9.524 -23.64,-9.524 -6.22,0 -11.73,1.457 -16.55,4.367 -4.81,2.91 -8.53,7.09 -11.15,12.528 -2.63,5.441 -3.94,11.82 -3.94,19.113 0,11.301 2.84,20.105 8.5,26.418 5.67,6.305 13.53,9.461 23.58,9.461 9.72,0 17.44,-3.235 23.17,-9.688 5.72,-6.457 8.58,-15.183 8.58,-26.191" /><path
         id="path66"
         style="fill:#fff;fill-opacity:1;fill-rule:nonzero;stroke:none"
         d="m 1609.01,250.84 c 3.09,0 5.86,-0.254 8.31,-0.762 l -1.46,-9.746 c -2.88,0.637 -5.41,0.945 -7.6,0.945 -5.63,0 -10.43,-2.273 -14.43,-6.836 -3.99,-4.55 -5.98,-10.222 -5.98,-17.007 v -37.211 h -10.53 v 69.347 h 8.68 l 1.21,-12.843 h 0.51 c 2.58,4.511 5.68,7.992 9.32,10.441 3.63,2.441 7.62,3.672 11.97,3.672" /><path
         id="path68"
         style="fill:#fff;fill-opacity:1;fill-rule:nonzero;stroke:none"
         d="m 1652.75,187.629 c 1.86,0 3.65,0.137 5.39,0.406 1.73,0.274 3.11,0.559 4.11,0.852 v -8.028 c -1.13,-0.554 -2.81,-1.007 -5.04,-1.367 -2.21,-0.351 -4.21,-0.539 -5.98,-0.539 -13.44,0 -20.16,7.07 -20.16,21.203 v 41.25 h -9.95 v 5.067 l 9.95,4.367 4.43,14.805 h 6.1 V 249.57 h 20.14 v -8.164 h -20.14 v -40.808 c 0,-4.18 0.98,-7.383 2.98,-9.621 1.98,-2.239 4.7,-3.348 8.17,-3.348" /><path
         id="path70"
         style="fill:#fff;fill-opacity:1;fill-rule:nonzero;stroke:none"
         d="m 1702.63,242.043 c -5.57,0 -10.02,-1.82 -13.34,-5.441 -3.32,-3.633 -5.27,-8.653 -5.86,-15.059 h 36.32 c 0,6.621 -1.48,11.687 -4.44,15.215 -2.96,3.523 -7.18,5.285 -12.68,5.285 z m 2.85,-63.09 c -10.26,0 -18.36,3.125 -24.3,9.367 -5.94,6.239 -8.91,14.91 -8.91,26.004 0,11.184 2.77,20.063 8.27,26.645 5.52,6.582 12.92,9.871 22.22,9.871 8.7,0 15.6,-2.863 20.66,-8.574 5.07,-5.723 7.61,-13.262 7.61,-22.625 V 213 h -47.85 c 0.21,-8.148 2.27,-14.328 6.17,-18.535 3.92,-4.223 9.42,-6.328 16.52,-6.328 7.48,0 14.87,1.551 22.18,4.676 v -9.368 c -3.72,-1.597 -7.23,-2.754 -10.55,-3.445 -3.32,-0.691 -7.32,-1.047 -12.02,-1.047" /><path
         id="path72"
         style="fill:#fff;fill-opacity:1;fill-rule:nonzero;stroke:none"
         d="m 499.508,327.012 v 118.496 h 25.168 V 327.012 h -25.168" /><path
         id="path74"
         style="fill:#fff;fill-opacity:1;fill-rule:nonzero;stroke:none"
         d="m 659.859,327.012 h -31.992 l -51.629,89.636 h -0.734 c 1.027,-15.828 1.543,-27.117 1.543,-33.875 v -55.761 h -22.488 v 118.496 h 31.746 l 51.554,-88.75 h 0.567 c -0.813,15.398 -1.223,26.289 -1.223,32.668 v 56.082 h 22.656 V 327.012" /><path
         id="path76"
         style="fill:#fff;fill-opacity:1;fill-rule:nonzero;stroke:none"
         d="m 759.813,359.91 c 0,-10.691 -3.86,-19.117 -11.575,-25.281 -7.715,-6.16 -18.445,-9.238 -32.195,-9.238 -12.656,0 -23.867,2.375 -33.605,7.129 v 23.339 c 8.007,-3.562 14.785,-6.074 20.332,-7.531 5.546,-1.465 10.625,-2.187 15.222,-2.187 5.52,0 9.758,1.047 12.707,3.156 2.949,2.109 4.422,5.246 4.422,9.402 0,2.324 -0.641,4.387 -1.941,6.203 -1.297,1.809 -3.211,3.555 -5.723,5.227 -2.519,1.68 -7.644,4.351 -15.391,8.023 -7.253,3.411 -12.695,6.672 -16.32,9.809 -3.621,3.133 -6.519,6.785 -8.687,10.945 -2.161,4.16 -3.243,9.024 -3.243,14.59 0,10.477 3.551,18.723 10.672,24.719 7.121,5.996 16.953,8.992 29.512,8.992 6.172,0 12.063,-0.723 17.668,-2.187 5.594,-1.457 11.453,-3.504 17.574,-6.153 l -8.125,-19.543 c -6.324,2.602 -11.57,4.406 -15.711,5.434 -4.14,1.023 -8.211,1.543 -12.215,1.543 -4.765,0 -8.418,-1.106 -10.957,-3.324 -2.55,-2.215 -3.82,-5.106 -3.82,-8.668 0,-2.219 0.52,-4.153 1.543,-5.801 1.027,-1.653 2.664,-3.242 4.91,-4.778 2.246,-1.542 7.563,-4.316 15.957,-8.308 11.098,-5.305 18.703,-10.609 22.817,-15.93 4.109,-5.32 6.172,-11.847 6.172,-19.582" /><path
         id="path78"
         style="fill:#fff;fill-opacity:1;fill-rule:nonzero;stroke:none"
         d="m 827.113,327.012 h -25.164 v 97.586 h -32.234 v 20.91 h 89.629 v -20.91 h -32.231 v -97.586" /><path
         id="path80"
         style="fill:#fff;fill-opacity:1;fill-rule:nonzero;stroke:none"
         d="m 877.613,327.012 v 118.496 h 25.168 V 327.012 h -25.168" /><path
         id="path82"
         style="fill:#fff;fill-opacity:1;fill-rule:nonzero;stroke:none"
         d="m 978.453,327.012 h -25.168 v 97.586 h -32.234 v 20.91 h 89.629 v -20.91 h -32.227 v -97.586" /><path
         id="path84"
         style="fill:#fff;fill-opacity:1;fill-rule:nonzero;stroke:none"
         d="m 1125.56,445.508 v -76.68 c 0,-8.75 -1.96,-16.426 -5.88,-23.019 -3.92,-6.59 -9.6,-11.637 -17.01,-15.157 -7.42,-3.511 -16.18,-5.261 -26.31,-5.261 -15.26,0 -27.12,3.894 -35.55,11.707 -8.45,7.812 -12.67,18.5 -12.67,32.062 v 76.348 h 25.09 v -72.539 c 0,-9.129 1.83,-15.84 5.52,-20.11 3.68,-4.265 9.76,-6.394 18.27,-6.394 8.22,0 14.19,2.148 17.9,6.445 3.7,4.285 5.55,11.035 5.55,20.215 v 72.383 h 25.09" /><path
         id="path86"
         style="fill:#fff;fill-opacity:1;fill-rule:nonzero;stroke:none"
         d="m 1200.43,327.012 h -25.17 v 97.586 h -32.24 v 20.91 h 89.63 v -20.91 h -32.22 v -97.586" /><path
         id="path88"
         style="fill:#fff;fill-opacity:1;fill-rule:nonzero;stroke:none"
         d="m 1272.04,386.426 c 0,-13.242 2.52,-23.211 7.56,-29.91 5.03,-6.703 12.54,-10.051 22.56,-10.051 20.08,0 30.12,13.32 30.12,39.961 0,26.687 -9.98,40.039 -29.95,40.039 -10.02,0 -17.57,-3.367 -22.66,-10.098 -5.08,-6.726 -7.63,-16.711 -7.63,-29.941 z m 86.63,0 c 0,-19.617 -4.87,-34.699 -14.61,-45.235 -9.75,-10.539 -23.71,-15.8 -41.9,-15.8 -18.18,0 -32.14,5.261 -41.89,15.8 -9.75,10.536 -14.62,25.664 -14.62,45.391 0,19.727 4.88,34.785 14.66,45.184 9.76,10.402 23.78,15.609 42.02,15.609 18.23,0 32.19,-5.246 41.85,-15.727 9.66,-10.488 14.49,-25.554 14.49,-45.222" /><path
         id="path90"
         style="fill:#fff;fill-opacity:1;fill-rule:nonzero;stroke:none"
         d="m 1451.23,327.012 h -24.77 v 118.496 h 68.04 v -20.586 h -43.27 v -30.559 h 40.26 v -20.508 h -40.26 v -46.843" /><path
         id="path92"
         style="fill:#fff;fill-opacity:1;fill-rule:nonzero;stroke:none"
         d="m 1586.08,327.012 h -68.36 v 118.496 h 68.36 v -20.586 h -43.19 v -26.016 h 40.19 V 378.32 h -40.19 v -30.554 h 43.19 v -20.754" /><path
         id="path94"
         style="fill:#fff;fill-opacity:1;fill-rule:nonzero;stroke:none"
         d="m 1683.19,386.75 c 0,25.445 -11.26,38.172 -33.78,38.172 h -13.4 v -77.156 h 10.8 c 24.25,0 36.38,12.988 36.38,38.984 z m 26.14,0.641 c 0,-19.5 -5.56,-34.442 -16.69,-44.825 -11.12,-10.371 -27.18,-15.554 -48.18,-15.554 h -33.61 v 118.496 h 37.26 c 19.38,0 34.43,-5.11 45.14,-15.324 10.72,-10.204 16.08,-24.469 16.08,-42.793" /><path
         id="path96"
         style="fill:#fff;fill-opacity:1;fill-rule:nonzero;stroke:none"
         d="m 1802.29,327.012 h -68.36 v 118.496 h 68.36 v -20.586 h -43.19 v -26.016 h 40.19 V 378.32 h -40.19 v -30.554 h 43.19 v -20.754" /><path
         id="path98"
         style="fill:#fff;fill-opacity:1;fill-rule:nonzero;stroke:none"
         d="m 1852.23,392.91 h 8.12 c 7.96,0 13.84,1.317 17.62,3.965 3.79,2.645 5.69,6.809 5.69,12.48 0,5.625 -1.94,9.618 -5.81,12 -3.87,2.375 -9.87,3.567 -17.98,3.567 h -7.64 z m 0,-20.43 v -45.468 h -25.16 v 118.496 h 34.59 c 16.12,0 28.05,-2.93 35.8,-8.789 7.74,-5.871 11.61,-14.766 11.61,-26.707 0,-6.977 -1.93,-13.176 -5.76,-18.606 -3.85,-5.429 -9.29,-9.687 -16.33,-12.765 17.87,-26.637 29.5,-43.844 34.91,-51.629 h -27.93 l -28.33,45.468 h -13.4" /><path
         id="path100"
         style="fill:#fff;fill-opacity:1;fill-rule:nonzero;stroke:none"
         d="m 1994.88,376.289 c -7.96,25.559 -12.43,40.012 -13.44,43.359 -0.99,3.352 -1.72,6.004 -2.15,7.95 -1.78,-6.914 -6.9,-24.024 -15.34,-51.309 z m 14.62,-49.277 -8.61,28.203 h -43.28 l -8.6,-28.203 h -27.12 l 41.9,118.984 h 30.77 l 42.06,-118.984 h -27.12" /><path
         id="path102"
         style="fill:#fff;fill-opacity:1;fill-rule:nonzero;stroke:none"
         d="m 2051.56,327.012 v 118.496 h 25.16 v -97.742 h 48.15 v -20.754 h -73.31" /></g></g></svg>